<svg width="0" height="0" class="hidden">
  <symbol xmlns="http://www.w3.org/2000/svg" viewBox="0 0 35.049 33.43" id="arrow-right">
    <path d="M.912 16.635h32.391M18.415 1.29l15.343 15.343M18.277 32.139L33.62 16.796" fill="none"  stroke-linecap="round" stroke-width="1.825"></path>
  </symbol>
  <symbol xmlns="http://www.w3.org/2000/svg" viewBox="0 0 35.049 33.43" id="arrow-left">
    <path d="M34.137 16.794H1.746m14.888 15.345L1.291 16.796M16.772 1.29L1.429 16.633" fill="none" stroke-linecap="round" stroke-width="1.825"></path>
  </symbol>
  <symbol xmlns="http://www.w3.org/2000/svg" viewBox="0 0 16.915 16.914" id="whatsup">
    <path d="M12.275 10.137c-.208-.105-1.239-.611-1.432-.679s-.332-.106-.471.105-.539.68-.664.823-.245.159-.453.053a5.7 5.7 0 0 1-2.851-2.491c-.216-.37.215-.344.616-1.144A.386.386 0 0 0 7 6.437c-.052-.1-.471-1.136-.646-1.555s-.343-.351-.471-.359-.26-.007-.4-.007a.771.771 0 0 0-.558.26 2.352 2.352 0 0 0-.733 1.748 4.089 4.089 0 0 0 .853 2.167 9.357 9.357 0 0 0 3.579 3.164 4.1 4.1 0 0 0 2.515.525 2.15 2.15 0 0 0 1.412-1 1.768 1.768 0 0 0 .121-1c-.049-.094-.189-.147-.4-.249m-3.814 5.225a6.954 6.954 0 0 1-3.549-.97l-.253-.151-2.637.69.7-2.571-.165-.264a6.967 6.967 0 0 1 10.828-8.631 6.917 6.917 0 0 1-4.924 11.897m5.927-12.9A8.384 8.384 0 0 0 1.194 12.57L.003 16.912l4.445-1.166a8.354 8.354 0 0 0 4.006 1.019 8.328 8.328 0 0 0 5.927-14.309" ></path>
  </symbol>
  <symbol xmlns="http://www.w3.org/2000/svg" viewBox="0 0 16.224 11.408" id="youtube">
    <path d="M6.453 8.128V3.303l4.24 2.412zm9.432-6.343A2.039 2.039 0 0 0 14.451.341a59.089 59.089 0 0 0-12.678 0A2.039 2.039 0 0 0 .339 1.785a22.956 22.956 0 0 0 0 7.861 2.007 2.007 0 0 0 1.434 1.42 58.921 58.921 0 0 0 12.678 0 2.007 2.007 0 0 0 1.434-1.42 22.948 22.948 0 0 0 0-7.861" fill="#024b76"></path>
  </symbol>
  <symbol xmlns="http://www.w3.org/2000/svg" viewBox="0 0 8.05 15.03" id="facebook">
    <path d="M7.522 8.454l.417-2.72h-2.61V3.969a1.361 1.361 0 0 1 1.534-1.47H8.05V.18a14.538 14.538 0 0 0-2.107-.183 3.32 3.32 0 0 0-3.554 3.661v2.073H0v2.72h2.389v6.576h2.94V8.451z" fill="#024b76"></path>
  </symbol>
  <symbol xmlns="http://www.w3.org/2000/svg" viewBox="0 0 14.183 14.18" id="inst">
    <path d="M12.621 11.269a2.4 2.4 0 0 1-1.348 1.348 30.8 30.8 0 0 1-8.36 0 2.393 2.393 0 0 1-1.348-1.348 30.9 30.9 0 0 1 0-8.359 2.4 2.4 0 0 1 1.348-1.348 30.8 30.8 0 0 1 8.36 0 2.392 2.392 0 0 1 1.348 1.348 30.9 30.9 0 0 1 0 8.359m1.512-7.1A3.927 3.927 0 0 0 10.017.052c-1.171-.066-4.68-.066-5.851 0A3.923 3.923 0 0 0 .05 4.166c-.067 1.17-.067 4.679 0 5.85a3.927 3.927 0 0 0 4.116 4.117c1.171.066 4.68.066 5.851 0a3.927 3.927 0 0 0 4.116-4.117c.066-1.171.066-4.676 0-5.847m-2.412-.864a.848.848 0 1 0-.848.848.848.848 0 0 0 .848-.848M7.089 9.453A2.363 2.363 0 1 1 9.453 7.09a2.368 2.368 0 0 1-2.364 2.363m0-6a3.635 3.635 0 1 0 3.635 3.636 3.629 3.629 0 0 0-3.635-3.636" fill="#024b76"></path>
  </symbol>
  <symbol xmlns="http://www.w3.org/2000/svg" viewBox="0 0 17.126 18.06" id="viber">
    <path d="M12.758 11.603a.632.632 0 0 0-.134-.833 9.223 9.223 0 0 0-1.615-1.16.739.739 0 0 0-.939.13l-.338.424a.62.62 0 0 1-.494.186 4.415 4.415 0 0 1-2.973-2.973.622.622 0 0 1 .187-.494l.423-.338a.737.737 0 0 0 .131-.938c-.125-.215-.36-.6-.537-.84-.187-.257-.625-.779-.625-.779a.643.643 0 0 0-.843-.138h-.006c-.673.381-1.411 1.094-1.174 1.827a10.546 10.546 0 0 0 .917 1.965 11.447 11.447 0 0 0 1.085 1.642 9.173 9.173 0 0 0 1.5 1.5 13.606 13.606 0 0 0 3.6 1.992l.008.011c.734.236 1.445-.5 1.827-1.174zm.4-3.46a4.615 4.615 0 0 0-4.716-4.91.228.228 0 0 0 0 .455 4.157 4.157 0 0 1 4.26 4.458.228.228 0 0 0 .456 0M11.5 7.673a.227.227 0 0 0 .454.011 3.089 3.089 0 0 0-3.1-3.263.228.228 0 0 0-.033.455 2.636 2.636 0 0 1 2.675 2.8m-.717-.4A1.531 1.531 0 0 0 9.2 5.647a.228.228 0 0 0-.026.455 1.091 1.091 0 0 1 1.151 1.2.227.227 0 1 0 .454-.022m4.9 2.85c-.456 3.668-3.139 3.9-3.633 4.06a15.181 15.181 0 0 1-4.627.395s-1.834 2.211-2.405 2.786c-.187.187-.392.169-.389-.2 0-.243.015-3.023.015-3.023-3.59-.994-3.38-4.736-3.34-6.694s.408-3.562 1.5-4.641c1.964-1.782 6.01-1.517 6.01-1.517 3.417.015 5.053 1.044 5.435 1.39 1.258 1.079 1.9 3.661 1.432 7.445m-.49-8.363c-.449-.412-2.262-1.727-6.3-1.745 0 0-4.765-.285-7.086 1.845C.51 3.159.055 5.053.001 7.398s-.109 6.74 4.127 7.932v1.82s-.028.737.459.885c.585.183.93-.377 1.492-.981.306-.331.729-.818 1.051-1.188a16.4 16.4 0 0 0 5.378-.395 5.3 5.3 0 0 0 4.433-5.009c.558-4.535-.268-7.4-1.756-8.694" ></path>
  </symbol>
    <symbol xmlns="http://www.w3.org/2000/svg" viewBox="0 0 28.8 28" id="geo">
    <path d="M6.1 16h2.5a76.592 76.592 0 0 0 5 7.6l.8 1.1.8-1.1a76.592 76.592 0 0 0 5-7.6h2.5L26 26H2.8zm8.3-14A6.594 6.594 0 0 1 21 8.6c0 2.8-4.2 9.3-6.6 12.7C12 18 7.8 11.4 7.8 8.6A6.594 6.594 0 0 1 14.4 2m9.7 12h-2.8A14.815 14.815 0 0 0 23 8.6a8.6 8.6 0 1 0-17.2 0A14.815 14.815 0 0 0 7.5 14H4.7L0 28h28.8zM12 8.6a2.4 2.4 0 1 1 2.4 2.4A2.433 2.433 0 0 1 12 8.6m6.8 0a4.4 4.4 0 1 0-4.4 4.4 4.439 4.439 0 0 0 4.4-4.4" fill="#024b76"></path>
  </symbol>
</svg>