<svg xmlns="http://www.w3.org/2000/svg" width="16.453" height="23.3" viewBox="0 0 16.453 23.3">
  <path id="Path_465" data-name="Path 465" d="M988.528,897.037l.927.425.735-.7a.582.582,0,0,1,.425-.154l1,.077.464-.889a.549.549,0,0,1,.348-.309l.966-.27.116-1.005a.514.514,0,0,1,.231-.386l.812-.58-.232-.966a.663.663,0,0,1,.077-.463l.541-.851-.541-.85a.631.631,0,0,1-.077-.463l.232-.966-.812-.58a.514.514,0,0,1-.231-.386l-.116-1.005-.966-.27a.548.548,0,0,1-.348-.31l-.464-.888-1-.078a.578.578,0,0,1-.425-.154l-.735-.7-.927.425a.489.489,0,0,1-.464,0l-.927-.425-.734.7a.581.581,0,0,1-.425.154l-1.005-.077-.464.889a.55.55,0,0,1-.347.309l-.966.271-.116,1a.514.514,0,0,1-.232.387l-.812.579.232.966a.665.665,0,0,1-.077.464l-.541.85.541.85a.632.632,0,0,1,.077.464l-.232.966.812.579a.514.514,0,0,1,.232.387l.116,1,.966.271a.545.545,0,0,1,.347.309l.464.889,1.005-.078h.038a.448.448,0,0,1,.387.155l.734.7.927-.425a1.1,1.1,0,0,0,.464.155m.811,1.623L988.3,898.2l-1.043.464a.5.5,0,0,1-.232.038.447.447,0,0,1-.386-.154l-.812-.773-1.159.077a.574.574,0,0,1-.541-.309l-.5-1.043-1.121-.309a.631.631,0,0,1-.425-.5l-.116-1.121-.927-.7a.64.64,0,0,1-.232-.618l.27-1.12-.618-.966a.664.664,0,0,1,0-.657l.618-.966-.27-1.121a.64.64,0,0,1,.232-.618l.927-.7.116-1.12a.629.629,0,0,1,.425-.5l1.082-.31.5-1.043a.549.549,0,0,1,.541-.309l1.16.077.811-.772a.6.6,0,0,1,.618-.116l1.044.463,1.043-.463a.586.586,0,0,1,.618.116l.812.772,1.159-.077a.575.575,0,0,1,.541.309l.5,1.043,1.082.31a.629.629,0,0,1,.425.5l.116,1.12.927.7a.64.64,0,0,1,.232.618l-.193,1.2.618.966a.664.664,0,0,1,0,.657l-.618.966.27,1.121a.639.639,0,0,1-.232.618l-.927.7-.116,1.121a.659.659,0,0,1-.425.425l-1.082.309-.5,1.043a.548.548,0,0,1-.541.309l-1.159-.077-.812.773a.535.535,0,0,1-.657.116m7.149,4.907-2.975-6.337-.31.618a1.435,1.435,0,0,1-.463.5l1.7,3.555-1.816-1.353a.573.573,0,0,0-.927.425l-.116,2.241-1.778-3.825c-.077,0-.154.039-.232.039a1.241,1.241,0,0,1-.541-.116l-.7-.309,3.207,6.839a.655.655,0,0,0,.541.348h.116a.543.543,0,0,0,.464-.541l.154-3.517,2.782,2.126a.581.581,0,0,0,.7,0,.556.556,0,0,0,.193-.7m-8.926-4.173.7-.309-3.208,6.839a.655.655,0,0,1-.541.348h-.115a.542.542,0,0,1-.464-.541l-.155-3.516-2.782,2.086a.577.577,0,0,1-.7,0,.589.589,0,0,1-.155-.7l2.975-6.337.31.618a1.167,1.167,0,0,0,.463.5l-1.7,3.555,1.816-1.352a.626.626,0,0,1,.348-.116.489.489,0,0,1,.232.039.615.615,0,0,1,.347.5l.116,2.241,1.778-3.825c.077,0,.154.038.232.038a.806.806,0,0,0,.5-.077" transform="translate(-980.088 -882.972)" fill="#024b76"/>
</svg>
