<svg xmlns="http://www.w3.org/2000/svg" width="20.079" height="18.563" viewBox="0 0 20.079 18.563">
  <g id="Group_533" data-name="Group 533" transform="translate(-821.119 -5849.423)">
    <path id="Path_796" data-name="Path 796" d="M979.563,948.913a.147.147,0,0,0-.036,0l-1.468.225a.229.229,0,0,0-.155.1.238.238,0,0,0-.043.176l.968,6.266a.236.236,0,0,0,.27.2l1.469-.225a.227.227,0,0,0,.154-.1.234.234,0,0,0,.043-.176l-.967-6.266a.232.232,0,0,0-.095-.155.237.237,0,0,0-.14-.045m-.5,7.92a1.19,1.19,0,0,1-1.174-1.008l-.965-6.268a1.192,1.192,0,0,1,.994-1.357l1.468-.225a1.19,1.19,0,0,1,1.357.993l.967,6.266a1.19,1.19,0,0,1-.993,1.357l-1.469.225a.978.978,0,0,1-.185.017" transform="translate(-155.787 4910.528)" fill="#024b76"/>
    <path id="Path_797" data-name="Path 797" d="M986.706,957.458a35.446,35.446,0,0,1-5.458-1.321.475.475,0,1,1,.273-.91,34.15,34.15,0,0,0,5.18,1.281c.459-.112,3.957-2.015,6.273-3.277,1.124-.611,2.184-1.188,2.864-1.545a.377.377,0,0,0,.2-.3.319.319,0,0,0-.128-.292,2.151,2.151,0,0,0-1.666-.355l-4.4.68a.475.475,0,1,1-.145-.939l4.4-.679a3.1,3.1,0,0,1,2.381.535,1.273,1.273,0,0,1,.5,1.128,1.313,1.313,0,0,1-.7,1.065c-.672.351-1.73.929-2.849,1.537-4.274,2.326-6.135,3.313-6.584,3.381a.689.689,0,0,1-.138.01" transform="translate(-155.787 4910.528)" fill="#024b76"/>
    <path id="Path_798" data-name="Path 798" d="M984.218,954.167a.476.476,0,0,1-.071-.946l5.517-.853a.262.262,0,0,0,.193-.138.235.235,0,0,0,0-.216,1.773,1.773,0,0,0-1.91-1.2l-2.428.375a1.648,1.648,0,0,1-1.4-.439,2.773,2.773,0,0,0-2.139-.9l-1.252.193c-.045.007-.1.014-.159.021a.355.355,0,0,1-.06.012l0-.009c-.226.009-.49-.043-.544-.388a.475.475,0,0,1,.4-.541h.005l1.466-.226a3.675,3.675,0,0,1,2.937,1.148.706.706,0,0,0,.6.19l2.429-.376a2.694,2.694,0,0,1,2.908,1.721,1.184,1.184,0,0,1-.012,1.076,1.218,1.218,0,0,1-.891.639l-5.517.853a.615.615,0,0,1-.074.005" transform="translate(-155.787 4910.528)" fill="#024b76"/>
    <path id="Path_799" data-name="Path 799" d="M989.1,941.369m-5.44,1.209,1.495,1.457a.888.888,0,0,1,.257.791l-.352,2.058,1.846-.972a.888.888,0,0,1,.832,0l1.846.972-.351-2.058a.9.9,0,0,1,.256-.791l1.495-1.457-2.065-.3a.893.893,0,0,1-.672-.49l-.925-1.872-.924,1.872a.9.9,0,0,1-.673.49Zm1.324,5.3a.9.9,0,0,1-.882-1.046l.369-2.14-1.557-1.516a.9.9,0,0,1,.5-1.526l2.15-.311.963-1.949a.892.892,0,0,1,1.6,0l.963,1.949,2.15.311a.895.895,0,0,1,.5,1.526l-1.557,1.516.369,2.14a.9.9,0,0,1-1.3.944l-1.922-1.01-1.922,1.01a.923.923,0,0,1-.421.1" transform="translate(-155.787 4910.528)" fill="#024b76"/>
  </g>
</svg>
