<svg xmlns="http://www.w3.org/2000/svg" width="19.475" height="19.473" viewBox="0 0 19.475 19.473">
  <g id="Group_533" data-name="Group 533" transform="translate(-976.79 -393.72)">
    <path id="Path_466" data-name="Path 466" d="M979.389,778.854H997.24a4.248,4.248,0,0,0-3-3.571l-1.866-.649a5.5,5.5,0,0,1-8.115,0l-1.866.649a4.248,4.248,0,0,0-3,3.571m18.257.811H978.983a.384.384,0,0,1-.406-.406,5.087,5.087,0,0,1,3.571-4.787l2.109-.73a.356.356,0,0,1,.406.081,4.816,4.816,0,0,0,3.652,1.785,5.011,5.011,0,0,0,3.651-1.7.357.357,0,0,1,.406-.081l2.109.73a5.014,5.014,0,0,1,3.571,4.787.372.372,0,0,1-.406.325" transform="translate(-1.787 -366.472)" fill="#024b76"/>
    <path id="Path_467" data-name="Path 467" d="M987.1,769.117h-.811a.405.405,0,1,1,0-.811h.811a.405.405,0,1,1,0,.811" transform="translate(-1.787 -366.472)" fill="#024b76"/>
    <path id="Path_468" data-name="Path 468" d="M990.343,769.117h-.811a.405.405,0,1,1,0-.811h.811a.405.405,0,1,1,0,.811" transform="translate(-1.787 -366.472)" fill="#024b76"/>
    <path id="Path_469" data-name="Path 469" d="M988.315,774.8c-2.029,0-3.814-1.623-4.544-4.057-.649,0-1.136-.893-1.136-2.029a2.919,2.919,0,0,1,.162-.892,2.964,2.964,0,0,1-.162-1.136,6.262,6.262,0,0,1,.162-1.217.445.445,0,0,1,.487-.325c.162.081.325.325.244.487a4.575,4.575,0,0,0-.082,1.055,5.614,5.614,0,0,0,.163,1.055v.243a1.086,1.086,0,0,0-.163.73c0,.812.325,1.217.406,1.217a.61.61,0,0,1,.406-.081c.081.081.243.163.243.244.568,2.353,2.11,3.9,3.814,3.9s3.246-1.542,3.814-3.814a.216.216,0,0,1,.243-.244h.406c.162,0,.406-.4.406-1.217a2.729,2.729,0,0,0-.082-.811v-.244a3.9,3.9,0,0,0,.082-.973,4.939,4.939,0,0,0-.082-1.055c-.081-.244.082-.406.325-.487s.406.081.487.325c0,.4.081.811.081,1.217a2.964,2.964,0,0,1-.162,1.136,2.919,2.919,0,0,1,.162.892c0,1.136-.487,2.029-1.136,2.029-.73,2.434-2.515,4.057-4.544,4.057" transform="translate(-1.787 -366.472)" fill="#024b76"/>
    <path id="Path_470" data-name="Path 470" d="M991.966,771.551H991.8l-3.489-1.217-3.49,1.217a.393.393,0,0,1-.486-.243c-.082-.163.081-.406.243-.487l3.651-1.217h.244l3.651,1.217a.362.362,0,0,1,.244.487.447.447,0,0,1-.406.243" transform="translate(-1.787 -366.472)" fill="#024b76"/>
    <path id="Path_471" data-name="Path 471" d="M987.909,779.665a.384.384,0,0,1-.406-.406v-3.245a.406.406,0,0,1,.812,0v3.245a.384.384,0,0,1-.406.406" transform="translate(-1.787 -366.472)" fill="#024b76"/>
    <path id="Path_472" data-name="Path 472" d="M992.778,778.043a.384.384,0,0,1-.406-.406v-1.623a.406.406,0,0,1,.812,0v1.623a.384.384,0,0,1-.406.406" transform="translate(-1.787 -366.472)" fill="#024b76"/>
    <path id="Path_473" data-name="Path 473" d="M993.589,777.231h-1.623a.406.406,0,1,1,0-.811h1.623a.406.406,0,1,1,0,.811" transform="translate(-1.787 -366.472)" fill="#024b76"/>
    <path id="Path_474" data-name="Path 474" d="M989.938,766.683a.405.405,0,1,1,0-.811,6.146,6.146,0,0,0,3.246-.568l-.406-2.6a2.152,2.152,0,0,0-2.029-1.7h-4.868a2,2,0,0,0-1.948,1.7l-.486,2.6a7.062,7.062,0,0,0,3.245.568.405.405,0,1,1,0,.811c-1.866,0-3.245-.243-3.9-.893a.446.446,0,0,1-.162-.4l.487-2.84a2.787,2.787,0,0,1,2.759-2.353h4.868a2.871,2.871,0,0,1,2.84,2.353l.406,2.84c0,.162,0,.243-.081.324-.73.731-2.11.893-3.976.974" transform="translate(-1.787 -366.472)" fill="#024b76"/>
    <path id="Path_475" data-name="Path 475" d="M988.315,763.437a1.623,1.623,0,1,0,1.623,1.623,1.627,1.627,0,0,0-1.623-1.623m0,4.057a2.435,2.435,0,1,1,2.434-2.434,2.391,2.391,0,0,1-2.434,2.434" transform="translate(-1.787 -366.472)" fill="#024b76"/>
  </g>
</svg>
