<svg xmlns="http://www.w3.org/2000/svg" width="271.969" height="276.952" viewBox="0 0 271.969 276.952">
  <path id="Контур_29" data-name="Контур 29" d="M1104.76,481.52c-14.57,9.35-34.56,14-51.52,21.77-5.86,2.87-11.8,6.19-17.79,9.65-30,17.31-61.33,38.13-95.51,20.95a109.6,109.6,0,0,1-14.92-9c-14.23-10.26-25.44-24.46-25.41-43,.78-13.16,2.34-26.32,2.56-39.28a133.126,133.126,0,0,0-1-19.28c-2.55-19.59-18.36-35.59-18.79-55.34-.35-16.13,10.08-30.92,20.66-42.1,11.23-11.88,23-24.51,34.88-35.66,12.58-11.78,29.07-24,47.14-25.74,24.33-2.35,38.84,17,56.26,30.59a343.4,343.4,0,0,0,41.55,28c11,6.27,21.47,11.39,33.58,15.16,11.62,3.62,21.79,10.62,28.41,21,22.95,36.08-5.83,86.82-30.68,113.49A86.506,86.506,0,0,1,1104.76,481.52Z" transform="translate(-881.871 -263.802)" fill="none" stroke="#80bfe2" stroke-miterlimit="10" stroke-width="1"/>
</svg>
