<svg xmlns="http://www.w3.org/2000/svg" width="256.71" height="235.89" viewBox="0 0 256.71 235.89">
  <path id="Контур_28" data-name="Контур 28" d="M1096.42,502.12c-15.76,2.72-34.43-.5-51.64,0-6,.34-12.26,1-18.61,1.82-31.73,3.95-65.9,10.4-88.72-16.58a100.336,100.336,0,0,1-9.43-13c-8.37-13.88-12.76-30-6-45.86,5.44-10.94,11.53-21.59,16.4-32.57a122.911,122.911,0,0,0,6.16-16.78c4.92-17.63-2.72-37,4.07-54,5.54-13.89,19.76-22.74,32.8-28.46,13.83-6.08,28.39-12.61,42.53-17.83,15-5.51,33.39-10,49.37-5,21.52,6.77,26.83,28.52,36.72,46.38a317.321,317.321,0,0,0,25.18,38.82c7.12,9.33,14.11,17.46,23,25,8.56,7.28,14.67,16.91,16.52,28.18,6.44,39-36.38,71.93-67.15,85.71a79.158,79.158,0,0,1-11.22,4.09" transform="translate(-918.71 -271.693)" fill="#d4edfc"/>
</svg>
